<mxfile host="app.diagrams.net" modified="2020-08-28T10:02:18.528Z" agent="5.0 (Windows NT 10.0; Win64; x64) AppleWebKit/537.36 (KHTML, like Gecko) Chrome/84.0.4147.89 Safari/537.36" etag="C6d2XHG6w6TXkCsauk2h" version="13.6.5" type="github" pages="2">
  <diagram id="MJOHnkFtZ1ftO1yoREpn" name="Page-1">
    <mxGraphModel dx="865" dy="514" grid="1" gridSize="10" guides="1" tooltips="1" connect="1" arrows="1" fold="1" page="1" pageScale="1" pageWidth="850" pageHeight="1100" math="0" shadow="0">
      <root>
        <mxCell id="0" />
        <mxCell id="1" parent="0" />
        <mxCell id="05G3gLc_pP7lKrbHob09-5" style="edgeStyle=orthogonalEdgeStyle;rounded=0;orthogonalLoop=1;jettySize=auto;html=1;entryX=0;entryY=0.5;entryDx=0;entryDy=0;" parent="1" source="05G3gLc_pP7lKrbHob09-1" target="hFsL_KCywkxefINf1Qib-37" edge="1">
          <mxGeometry relative="1" as="geometry">
            <Array as="points">
              <mxPoint x="270" y="245" />
              <mxPoint x="270" y="245" />
            </Array>
            <mxPoint x="360" y="245" as="targetPoint" />
          </mxGeometry>
        </mxCell>
        <mxCell id="05G3gLc_pP7lKrbHob09-1" value="Patient&amp;nbsp;" style="rounded=0;whiteSpace=wrap;html=1;fillColor=#fff2cc;strokeColor=#d6b656;" parent="1" vertex="1">
          <mxGeometry x="110" y="230" width="120" height="60" as="geometry" />
        </mxCell>
        <mxCell id="-AJaVRu936mDheukeF8z-1" style="edgeStyle=orthogonalEdgeStyle;rounded=0;orthogonalLoop=1;jettySize=auto;html=1;entryX=0.931;entryY=0.764;entryDx=0;entryDy=0;entryPerimeter=0;" edge="1" parent="1" source="05G3gLc_pP7lKrbHob09-2" target="hFsL_KCywkxefINf1Qib-37">
          <mxGeometry relative="1" as="geometry">
            <Array as="points">
              <mxPoint x="560" y="274" />
              <mxPoint x="560" y="274" />
            </Array>
          </mxGeometry>
        </mxCell>
        <mxCell id="05G3gLc_pP7lKrbHob09-2" value="Doctor" style="rounded=0;whiteSpace=wrap;html=1;fillColor=#ffe6cc;strokeColor=#d79b00;" parent="1" vertex="1">
          <mxGeometry x="590" y="230" width="120" height="60" as="geometry" />
        </mxCell>
        <mxCell id="05G3gLc_pP7lKrbHob09-7" style="edgeStyle=orthogonalEdgeStyle;rounded=0;orthogonalLoop=1;jettySize=auto;html=1;exitX=0.083;exitY=0.762;exitDx=0;exitDy=0;exitPerimeter=0;" parent="1" source="hFsL_KCywkxefINf1Qib-37" target="05G3gLc_pP7lKrbHob09-1" edge="1">
          <mxGeometry relative="1" as="geometry">
            <Array as="points">
              <mxPoint x="374" y="270" />
            </Array>
            <mxPoint x="360" y="270.03999999999996" as="sourcePoint" />
          </mxGeometry>
        </mxCell>
        <mxCell id="05G3gLc_pP7lKrbHob09-11" style="edgeStyle=orthogonalEdgeStyle;rounded=0;orthogonalLoop=1;jettySize=auto;html=1;entryX=0;entryY=0.5;entryDx=0;entryDy=0;exitX=0.985;exitY=0.622;exitDx=0;exitDy=0;exitPerimeter=0;" parent="1" source="hFsL_KCywkxefINf1Qib-37" target="05G3gLc_pP7lKrbHob09-2" edge="1">
          <mxGeometry relative="1" as="geometry">
            <mxPoint x="480" y="260" as="sourcePoint" />
            <Array as="points">
              <mxPoint x="532" y="258" />
              <mxPoint x="532" y="260" />
            </Array>
          </mxGeometry>
        </mxCell>
        <mxCell id="05G3gLc_pP7lKrbHob09-6" value="Payment" style="text;html=1;strokeColor=none;fillColor=none;align=center;verticalAlign=middle;whiteSpace=wrap;rounded=0;" parent="1" vertex="1">
          <mxGeometry x="270" y="220" width="60" height="30" as="geometry" />
        </mxCell>
        <mxCell id="05G3gLc_pP7lKrbHob09-8" value="Receipt" style="text;html=1;strokeColor=none;fillColor=none;align=center;verticalAlign=middle;whiteSpace=wrap;rounded=0;" parent="1" vertex="1">
          <mxGeometry x="270" y="270" width="60" height="20" as="geometry" />
        </mxCell>
        <mxCell id="05G3gLc_pP7lKrbHob09-13" value="Appointment" style="text;html=1;strokeColor=none;fillColor=none;align=center;verticalAlign=middle;whiteSpace=wrap;rounded=0;" parent="1" vertex="1">
          <mxGeometry x="510" y="215" width="50" height="40" as="geometry" />
        </mxCell>
        <mxCell id="05G3gLc_pP7lKrbHob09-14" value="&lt;font style=&quot;font-size: 23px&quot;&gt;Level - 0&lt;/font&gt;" style="text;html=1;strokeColor=none;fillColor=none;align=center;verticalAlign=middle;whiteSpace=wrap;rounded=0;" parent="1" vertex="1">
          <mxGeometry x="340" y="80" width="160" height="70" as="geometry" />
        </mxCell>
        <mxCell id="hFsL_KCywkxefINf1Qib-39" style="edgeStyle=orthogonalEdgeStyle;rounded=0;orthogonalLoop=1;jettySize=auto;html=1;entryX=0;entryY=0.429;entryDx=0;entryDy=0;entryPerimeter=0;" parent="1" source="hFsL_KCywkxefINf1Qib-1" target="hFsL_KCywkxefINf1Qib-36" edge="1">
          <mxGeometry relative="1" as="geometry">
            <Array as="points">
              <mxPoint x="245" y="600" />
              <mxPoint x="245" y="710" />
              <mxPoint x="320" y="710" />
            </Array>
          </mxGeometry>
        </mxCell>
        <mxCell id="hFsL_KCywkxefINf1Qib-1" value="Doctor" style="rounded=0;whiteSpace=wrap;html=1;fillColor=#ffcd28;strokeColor=#d79b00;gradientColor=#ffa500;" parent="1" vertex="1">
          <mxGeometry x="50" y="570" width="120" height="60" as="geometry" />
        </mxCell>
        <mxCell id="hFsL_KCywkxefINf1Qib-14" style="edgeStyle=orthogonalEdgeStyle;rounded=0;orthogonalLoop=1;jettySize=auto;html=1;" parent="1" target="hFsL_KCywkxefINf1Qib-4" edge="1" source="hFsL_KCywkxefINf1Qib-41">
          <mxGeometry relative="1" as="geometry">
            <mxPoint x="550" y="900" as="sourcePoint" />
            <Array as="points">
              <mxPoint x="610" y="905" />
              <mxPoint x="610" y="905" />
            </Array>
          </mxGeometry>
        </mxCell>
        <mxCell id="hFsL_KCywkxefINf1Qib-11" style="edgeStyle=orthogonalEdgeStyle;rounded=0;orthogonalLoop=1;jettySize=auto;html=1;entryX=0.5;entryY=0;entryDx=0;entryDy=0;" parent="1" target="hFsL_KCywkxefINf1Qib-36" edge="1">
          <mxGeometry relative="1" as="geometry">
            <mxPoint x="600" y="620" as="sourcePoint" />
            <mxPoint x="385" y="640" as="targetPoint" />
          </mxGeometry>
        </mxCell>
        <mxCell id="hFsL_KCywkxefINf1Qib-4" value="Billing Department" style="rounded=0;whiteSpace=wrap;html=1;fillColor=#f5f5f5;strokeColor=#666666;gradientColor=#b3b3b3;" parent="1" vertex="1">
          <mxGeometry x="640" y="870" width="120" height="60" as="geometry" />
        </mxCell>
        <mxCell id="hFsL_KCywkxefINf1Qib-13" style="edgeStyle=orthogonalEdgeStyle;rounded=0;orthogonalLoop=1;jettySize=auto;html=1;entryX=0;entryY=0.5;entryDx=0;entryDy=0;" parent="1" edge="1">
          <mxGeometry relative="1" as="geometry">
            <mxPoint x="360" y="900" as="sourcePoint" />
            <mxPoint x="440" y="900" as="targetPoint" />
          </mxGeometry>
        </mxCell>
        <mxCell id="hFsL_KCywkxefINf1Qib-35" style="edgeStyle=orthogonalEdgeStyle;rounded=0;orthogonalLoop=1;jettySize=auto;html=1;entryX=0.036;entryY=0.692;entryDx=0;entryDy=0;entryPerimeter=0;" parent="1" source="hFsL_KCywkxefINf1Qib-7" edge="1">
          <mxGeometry relative="1" as="geometry">
            <mxPoint x="320.03999999999996" y="729.96" as="targetPoint" />
          </mxGeometry>
        </mxCell>
        <mxCell id="hFsL_KCywkxefINf1Qib-7" value="Nurse" style="rounded=0;whiteSpace=wrap;html=1;fillColor=#ffcd28;strokeColor=#d79b00;gradientColor=#ffa500;" parent="1" vertex="1">
          <mxGeometry x="50" y="700" width="120" height="60" as="geometry" />
        </mxCell>
        <mxCell id="hFsL_KCywkxefINf1Qib-15" value="Patient Data" style="text;html=1;strokeColor=none;fillColor=none;align=center;verticalAlign=middle;whiteSpace=wrap;rounded=0;" parent="1" vertex="1">
          <mxGeometry x="490" y="580" width="70" height="40" as="geometry" />
        </mxCell>
        <mxCell id="hFsL_KCywkxefINf1Qib-16" value="Order filling" style="text;html=1;strokeColor=none;fillColor=none;align=center;verticalAlign=middle;whiteSpace=wrap;rounded=0;" parent="1" vertex="1">
          <mxGeometry x="395" y="780" width="60" height="30" as="geometry" />
        </mxCell>
        <mxCell id="hFsL_KCywkxefINf1Qib-17" value="Amount" style="text;html=1;strokeColor=none;fillColor=none;align=center;verticalAlign=middle;whiteSpace=wrap;rounded=0;" parent="1" vertex="1">
          <mxGeometry x="570" y="860" width="50" height="30" as="geometry" />
        </mxCell>
        <mxCell id="hFsL_KCywkxefINf1Qib-18" value="Proceeds with the operation" style="text;html=1;strokeColor=none;fillColor=none;align=center;verticalAlign=middle;whiteSpace=wrap;rounded=0;" parent="1" vertex="1">
          <mxGeometry x="250" y="590" width="70" height="40" as="geometry" />
        </mxCell>
        <mxCell id="hFsL_KCywkxefINf1Qib-19" value="Helps doctor" style="text;html=1;strokeColor=none;fillColor=none;align=center;verticalAlign=middle;whiteSpace=wrap;rounded=0;" parent="1" vertex="1">
          <mxGeometry x="200" y="740" width="60" height="20" as="geometry" />
        </mxCell>
        <mxCell id="hFsL_KCywkxefINf1Qib-20" value="Patient&#39;s File" style="html=1;dashed=0;whitespace=wrap;shape=partialRectangle;right=0;fillColor=#f8cecc;strokeColor=#b85450;gradientColor=#ea6b66;" parent="1" vertex="1">
          <mxGeometry x="600" y="590" width="120" height="50" as="geometry" />
        </mxCell>
        <mxCell id="hFsL_KCywkxefINf1Qib-21" value="&lt;font style=&quot;font-size: 22px&quot;&gt;lvl 1&lt;/font&gt;" style="text;html=1;strokeColor=none;fillColor=none;align=center;verticalAlign=middle;whiteSpace=wrap;rounded=0;" parent="1" vertex="1">
          <mxGeometry x="315" y="470" width="200" height="60" as="geometry" />
        </mxCell>
        <mxCell id="hFsL_KCywkxefINf1Qib-24" value="Hospital Database" style="html=1;dashed=0;whitespace=wrap;shape=partialRectangle;right=0;fillColor=#ffff88;strokeColor=#36393d;" parent="1" vertex="1">
          <mxGeometry x="340" y="350" width="160" height="50" as="geometry" />
        </mxCell>
        <mxCell id="hFsL_KCywkxefINf1Qib-25" value="" style="endArrow=classic;startArrow=classic;html=1;exitX=0.5;exitY=0;exitDx=0;exitDy=0;" parent="1" source="hFsL_KCywkxefINf1Qib-24" edge="1">
          <mxGeometry width="50" height="50" relative="1" as="geometry">
            <mxPoint x="400" y="350" as="sourcePoint" />
            <mxPoint x="420" y="300" as="targetPoint" />
          </mxGeometry>
        </mxCell>
        <mxCell id="hFsL_KCywkxefINf1Qib-26" value="Hospital database" style="html=1;dashed=0;whitespace=wrap;shape=partialRectangle;right=0;fillColor=#fff2cc;strokeColor=#d6b656;gradientColor=#ffd966;" parent="1" vertex="1">
          <mxGeometry x="590" y="690" width="140" height="60" as="geometry" />
        </mxCell>
        <mxCell id="hFsL_KCywkxefINf1Qib-30" value="" style="endArrow=classic;startArrow=classic;html=1;entryX=0;entryY=0.5;entryDx=0;entryDy=0;" parent="1" target="hFsL_KCywkxefINf1Qib-26" edge="1">
          <mxGeometry width="50" height="50" relative="1" as="geometry">
            <mxPoint x="457" y="720" as="sourcePoint" />
            <mxPoint x="540" y="690" as="targetPoint" />
          </mxGeometry>
        </mxCell>
        <mxCell id="hFsL_KCywkxefINf1Qib-31" value="" style="endArrow=classic;startArrow=classic;html=1;entryX=0.5;entryY=1;entryDx=0;entryDy=0;exitX=0.5;exitY=0;exitDx=0;exitDy=0;" parent="1" source="hFsL_KCywkxefINf1Qib-26" target="hFsL_KCywkxefINf1Qib-20" edge="1">
          <mxGeometry width="50" height="50" relative="1" as="geometry">
            <mxPoint x="640" y="710" as="sourcePoint" />
            <mxPoint x="690" y="660" as="targetPoint" />
          </mxGeometry>
        </mxCell>
        <mxCell id="hFsL_KCywkxefINf1Qib-32" value="Stores data&amp;nbsp;" style="text;html=1;strokeColor=none;fillColor=none;align=center;verticalAlign=middle;whiteSpace=wrap;rounded=0;" parent="1" vertex="1">
          <mxGeometry x="490" y="720" width="60" height="40" as="geometry" />
        </mxCell>
        <mxCell id="hFsL_KCywkxefINf1Qib-33" value="Fetches data" style="text;html=1;strokeColor=none;fillColor=none;align=center;verticalAlign=middle;whiteSpace=wrap;rounded=0;" parent="1" vertex="1">
          <mxGeometry x="670" y="660" width="40" height="20" as="geometry" />
        </mxCell>
        <mxCell id="hFsL_KCywkxefINf1Qib-42" style="edgeStyle=orthogonalEdgeStyle;rounded=0;orthogonalLoop=1;jettySize=auto;html=1;" parent="1" source="hFsL_KCywkxefINf1Qib-36" target="hFsL_KCywkxefINf1Qib-40" edge="1">
          <mxGeometry relative="1" as="geometry" />
        </mxCell>
        <mxCell id="hFsL_KCywkxefINf1Qib-36" value="&lt;font style=&quot;font-size: 17px&quot;&gt;Admin&lt;/font&gt;" style="rounded=0;whiteSpace=wrap;html=1;" parent="1" vertex="1">
          <mxGeometry x="320" y="690" width="140" height="70" as="geometry" />
        </mxCell>
        <mxCell id="hFsL_KCywkxefINf1Qib-37" value="Hospital Management System" style="ellipse;whiteSpace=wrap;html=1;aspect=fixed;gradientColor=#ffd966;fillColor=#fff2cc;strokeColor=#d6b656;" parent="1" vertex="1">
          <mxGeometry x="365" y="190" width="110" height="110" as="geometry" />
        </mxCell>
        <mxCell id="hFsL_KCywkxefINf1Qib-38" value="Only one process in level 0 which represents the whole software system" style="text;html=1;strokeColor=none;fillColor=none;align=center;verticalAlign=middle;whiteSpace=wrap;rounded=0;" parent="1" vertex="1">
          <mxGeometry x="570" y="100" width="190" height="50" as="geometry" />
        </mxCell>
        <mxCell id="hFsL_KCywkxefINf1Qib-40" value="Ordering Medicines" style="ellipse;whiteSpace=wrap;html=1;aspect=fixed;direction=south;gradientColor=#b3b3b3;fillColor=#f5f5f5;strokeColor=#666666;" parent="1" vertex="1">
          <mxGeometry x="270" y="860" width="90" height="90" as="geometry" />
        </mxCell>
        <mxCell id="hFsL_KCywkxefINf1Qib-41" value="&lt;span&gt;Reviewing the order of medicines&lt;/span&gt;" style="ellipse;whiteSpace=wrap;html=1;aspect=fixed;gradientColor=#b3b3b3;fillColor=#f5f5f5;strokeColor=#666666;" parent="1" vertex="1">
          <mxGeometry x="450" y="860" width="90" height="90" as="geometry" />
        </mxCell>
        <mxCell id="-AJaVRu936mDheukeF8z-5" style="edgeStyle=orthogonalEdgeStyle;rounded=0;orthogonalLoop=1;jettySize=auto;html=1;" edge="1" parent="1" source="-AJaVRu936mDheukeF8z-4">
          <mxGeometry relative="1" as="geometry">
            <mxPoint x="660" y="590" as="targetPoint" />
          </mxGeometry>
        </mxCell>
        <mxCell id="-AJaVRu936mDheukeF8z-4" value="Patient" style="rounded=0;whiteSpace=wrap;html=1;" vertex="1" parent="1">
          <mxGeometry x="465" y="500" width="120" height="60" as="geometry" />
        </mxCell>
      </root>
    </mxGraphModel>
  </diagram>
  <diagram id="hhBLP_6pzODG1KVzNnWB" name="Page-2">
    
    <mxGraphModel dx="1087" dy="617" grid="1" gridSize="10" guides="1" tooltips="1" connect="1" arrows="1" fold="1" page="1" pageScale="1" pageWidth="1200" pageHeight="1920" math="0" shadow="0">
      
      <root>
        
        <mxCell id="uodPsg_q9OTwyuHkPkrY-0" />
        
        <mxCell id="uodPsg_q9OTwyuHkPkrY-1" parent="uodPsg_q9OTwyuHkPkrY-0" />
        
        <mxCell id="uodPsg_q9OTwyuHkPkrY-2" value="Hospital Management System" style="ellipse;whiteSpace=wrap;html=1;" vertex="1" parent="uodPsg_q9OTwyuHkPkrY-1">
          
          <mxGeometry x="370" y="480" width="205" height="140" as="geometry" />
          
        </mxCell>
        
        <mxCell id="uodPsg_q9OTwyuHkPkrY-3" value="Patient" style="rounded=0;whiteSpace=wrap;html=1;" vertex="1" parent="uodPsg_q9OTwyuHkPkrY-1">
          
          <mxGeometry x="30" y="520" width="120" height="60" as="geometry" />
          
        </mxCell>
        
        <mxCell id="uodPsg_q9OTwyuHkPkrY-4" value="Treatment&amp;nbsp;" style="ellipse;whiteSpace=wrap;html=1;" vertex="1" parent="uodPsg_q9OTwyuHkPkrY-1">
          
          <mxGeometry x="210" y="320" width="120" height="80" as="geometry" />
          
        </mxCell>
        
        <mxCell id="uodPsg_q9OTwyuHkPkrY-5" value="Reports" style="ellipse;whiteSpace=wrap;html=1;" vertex="1" parent="uodPsg_q9OTwyuHkPkrY-1">
          
          <mxGeometry x="210" y="440" width="130" height="90" as="geometry" />
          
        </mxCell>
        
        <mxCell id="uodPsg_q9OTwyuHkPkrY-6" value="Billing" style="ellipse;whiteSpace=wrap;html=1;" vertex="1" parent="uodPsg_q9OTwyuHkPkrY-1">
          
          <mxGeometry x="210" y="590" width="120" height="80" as="geometry" />
          
        </mxCell>
        
        <mxCell id="uodPsg_q9OTwyuHkPkrY-7" value="Checkups" style="ellipse;whiteSpace=wrap;html=1;" vertex="1" parent="uodPsg_q9OTwyuHkPkrY-1">
          
          <mxGeometry x="210" y="730" width="120" height="80" as="geometry" />
          
        </mxCell>
        
        <mxCell id="uodPsg_q9OTwyuHkPkrY-8" value="" style="endArrow=classic;html=1;entryX=0;entryY=0.625;entryDx=0;entryDy=0;entryPerimeter=0;exitX=0.75;exitY=0;exitDx=0;exitDy=0;" edge="1" parent="uodPsg_q9OTwyuHkPkrY-1" source="uodPsg_q9OTwyuHkPkrY-3" target="uodPsg_q9OTwyuHkPkrY-4">
          
          <mxGeometry width="50" height="50" relative="1" as="geometry">
            
            <mxPoint x="140" y="500" as="sourcePoint" />
            
            <mxPoint x="190" y="450" as="targetPoint" />
            
          </mxGeometry>
          
        </mxCell>
        
        <mxCell id="uodPsg_q9OTwyuHkPkrY-9" value="" style="endArrow=classic;html=1;entryX=0.073;entryY=0.79;entryDx=0;entryDy=0;entryPerimeter=0;exitX=1;exitY=0.5;exitDx=0;exitDy=0;" edge="1" parent="uodPsg_q9OTwyuHkPkrY-1" source="uodPsg_q9OTwyuHkPkrY-3" target="uodPsg_q9OTwyuHkPkrY-5">
          
          <mxGeometry width="50" height="50" relative="1" as="geometry">
            
            <mxPoint x="160" y="580" as="sourcePoint" />
            
            <mxPoint x="210" y="530" as="targetPoint" />
            
          </mxGeometry>
          
        </mxCell>
        
        <mxCell id="uodPsg_q9OTwyuHkPkrY-10" value="" style="endArrow=classic;html=1;exitX=1;exitY=1;exitDx=0;exitDy=0;entryX=0.047;entryY=0.32;entryDx=0;entryDy=0;entryPerimeter=0;" edge="1" parent="uodPsg_q9OTwyuHkPkrY-1" source="uodPsg_q9OTwyuHkPkrY-3" target="uodPsg_q9OTwyuHkPkrY-6">
          
          <mxGeometry width="50" height="50" relative="1" as="geometry">
            
            <mxPoint x="130" y="650" as="sourcePoint" />
            
            <mxPoint x="180" y="600" as="targetPoint" />
            
          </mxGeometry>
          
        </mxCell>
        
        <mxCell id="uodPsg_q9OTwyuHkPkrY-11" value="" style="endArrow=classic;html=1;exitX=0.627;exitY=1.007;exitDx=0;exitDy=0;exitPerimeter=0;entryX=0;entryY=0;entryDx=0;entryDy=0;" edge="1" parent="uodPsg_q9OTwyuHkPkrY-1" source="uodPsg_q9OTwyuHkPkrY-3" target="uodPsg_q9OTwyuHkPkrY-7">
          
          <mxGeometry width="50" height="50" relative="1" as="geometry">
            
            <mxPoint x="110" y="670" as="sourcePoint" />
            
            <mxPoint x="160" y="620" as="targetPoint" />
            
          </mxGeometry>
          
        </mxCell>
        
        <mxCell id="uodPsg_q9OTwyuHkPkrY-12" value="" style="endArrow=classic;html=1;exitX=1;exitY=0.5;exitDx=0;exitDy=0;entryX=0.308;entryY=0.031;entryDx=0;entryDy=0;entryPerimeter=0;" edge="1" parent="uodPsg_q9OTwyuHkPkrY-1" source="uodPsg_q9OTwyuHkPkrY-4" target="uodPsg_q9OTwyuHkPkrY-2">
          
          <mxGeometry width="50" height="50" relative="1" as="geometry">
            
            <mxPoint x="370" y="450" as="sourcePoint" />
            
            <mxPoint x="420" y="400" as="targetPoint" />
            
          </mxGeometry>
          
        </mxCell>
        
        <mxCell id="uodPsg_q9OTwyuHkPkrY-13" value="" style="endArrow=classic;html=1;exitX=1;exitY=0.5;exitDx=0;exitDy=0;" edge="1" parent="uodPsg_q9OTwyuHkPkrY-1" source="uodPsg_q9OTwyuHkPkrY-5" target="uodPsg_q9OTwyuHkPkrY-2">
          
          <mxGeometry width="50" height="50" relative="1" as="geometry">
            
            <mxPoint x="340" y="520" as="sourcePoint" />
            
            <mxPoint x="390" y="470" as="targetPoint" />
            
          </mxGeometry>
          
        </mxCell>
        
        <mxCell id="uodPsg_q9OTwyuHkPkrY-14" value="" style="endArrow=classic;html=1;exitX=1;exitY=0.5;exitDx=0;exitDy=0;entryX=0.098;entryY=0.786;entryDx=0;entryDy=0;entryPerimeter=0;" edge="1" parent="uodPsg_q9OTwyuHkPkrY-1" source="uodPsg_q9OTwyuHkPkrY-6" target="uodPsg_q9OTwyuHkPkrY-2">
          
          <mxGeometry width="50" height="50" relative="1" as="geometry">
            
            <mxPoint x="340" y="650" as="sourcePoint" />
            
            <mxPoint x="390" y="600" as="targetPoint" />
            
          </mxGeometry>
          
        </mxCell>
        
        <mxCell id="uodPsg_q9OTwyuHkPkrY-15" value="" style="endArrow=classic;html=1;entryX=0.32;entryY=0.986;entryDx=0;entryDy=0;entryPerimeter=0;" edge="1" parent="uodPsg_q9OTwyuHkPkrY-1" target="uodPsg_q9OTwyuHkPkrY-2">
          
          <mxGeometry width="50" height="50" relative="1" as="geometry">
            
            <mxPoint x="330" y="752" as="sourcePoint" />
            
            <mxPoint x="370" y="710" as="targetPoint" />
            
          </mxGeometry>
          
        </mxCell>
        
        <mxCell id="uodPsg_q9OTwyuHkPkrY-16" value="" style="endArrow=classic;html=1;exitX=1;exitY=0.5;exitDx=0;exitDy=0;" edge="1" parent="uodPsg_q9OTwyuHkPkrY-1" source="uodPsg_q9OTwyuHkPkrY-2">
          
          <mxGeometry width="50" height="50" relative="1" as="geometry">
            
            <mxPoint x="590" y="570" as="sourcePoint" />
            
            <mxPoint x="660" y="550" as="targetPoint" />
            
          </mxGeometry>
          
        </mxCell>
        
        <mxCell id="uodPsg_q9OTwyuHkPkrY-17" value="Database" style="html=1;dashed=0;whitespace=wrap;shape=partialRectangle;right=0;" vertex="1" parent="uodPsg_q9OTwyuHkPkrY-1">
          
          <mxGeometry x="660" y="520" width="110" height="50" as="geometry" />
          
        </mxCell>
        
        <mxCell id="uodPsg_q9OTwyuHkPkrY-18" style="edgeStyle=orthogonalEdgeStyle;rounded=0;orthogonalLoop=1;jettySize=auto;html=1;" edge="1" parent="uodPsg_q9OTwyuHkPkrY-1" source="uodPsg_q9OTwyuHkPkrY-19">
          
          <mxGeometry relative="1" as="geometry">
            
            <mxPoint x="710" y="520" as="targetPoint" />
            
          </mxGeometry>
          
        </mxCell>
        
        <mxCell id="uodPsg_q9OTwyuHkPkrY-19" value="Doctor" style="rounded=0;whiteSpace=wrap;html=1;" vertex="1" parent="uodPsg_q9OTwyuHkPkrY-1">
          
          <mxGeometry x="650" y="340" width="120" height="60" as="geometry" />
          
        </mxCell>
        
        <mxCell id="uodPsg_q9OTwyuHkPkrY-20" value="&lt;font style=&quot;font-size: 18px&quot;&gt;lvl2&lt;/font&gt;" style="text;html=1;strokeColor=none;fillColor=none;align=center;verticalAlign=middle;whiteSpace=wrap;rounded=0;" vertex="1" parent="uodPsg_q9OTwyuHkPkrY-1">
          
          <mxGeometry x="380" y="210" width="90" height="50" as="geometry" />
          
        </mxCell>
        
      </root>
      
    </mxGraphModel>
    
  </diagram>
</mxfile>
